<svg width="115" height="106" viewBox="0 0 115 106" fill="none" xmlns="http://www.w3.org/2000/svg">
<path d="M58.1477 71.1371C76.9632 71.1371 92.2162 55.8841 92.2162 37.0686C92.2162 18.253 76.9632 3 58.1477 3C39.3321 3 24.0791 18.253 24.0791 37.0686C24.0791 55.8841 39.3321 71.1371 58.1477 71.1371Z" stroke="white" stroke-width="6" stroke-linecap="round" stroke-linejoin="round"/>
<path d="M58.1473 51.0394C65.863 51.0394 72.1179 44.7846 72.1179 37.0688C72.1179 29.3531 65.863 23.0983 58.1473 23.0983C50.4316 23.0983 44.1768 29.3531 44.1768 37.0688C44.1768 44.7846 50.4316 51.0394 58.1473 51.0394Z" stroke="white" stroke-width="6" stroke-linecap="round" stroke-linejoin="round"/>
<path d="M60.8447 73.913L89.4753 103L94.4477 83.5386L111.825 80.5405L86.8583 55.451" stroke="white" stroke-width="6" stroke-linecap="round" stroke-linejoin="round"/>
<path d="M53.4901 74.1746L25.1255 103L20.197 83.7128L3 80.7618L27.747 55.9412" stroke="white" stroke-width="6" stroke-linecap="round" stroke-linejoin="round"/>
</svg>
