<svg width="106" height="106" viewBox="0 0 106 106" fill="none" xmlns="http://www.w3.org/2000/svg">
<path d="M3 103H103L83.9524 69.8103H57.4762C54.6667 72.75 52.7143 74.5517 53.3334 74.5517C53.9524 74.5517 52 72.75 49.1905 69.8103H26.8095L3 103Z" stroke="white" stroke-width="6" stroke-linecap="round" stroke-linejoin="round"/>
<path d="M57.3851 69.8103C65.4856 61.4113 82.3098 43.8021 82.3098 31.9671C82.3098 24.2846 79.2444 16.9165 73.7881 11.4841C68.3318 6.05174 60.9314 3 53.215 3C45.4986 3 38.0981 6.05174 32.6418 11.4841C27.1855 16.9165 24.1201 24.2846 24.1201 31.9671C24.1201 43.8021 40.9443 61.4113 49.0448 69.8103" stroke="white" stroke-width="6" stroke-linecap="round" stroke-linejoin="round"/>
<path d="M53.2143 40.5C58.8086 40.5 63.3436 35.8686 63.3436 30.1553C63.3436 24.4419 58.8086 19.8103 53.2143 19.8103C47.6201 19.8103 43.085 24.4419 43.085 30.1553C43.085 35.8686 47.6201 40.5 53.2143 40.5Z" stroke="white" stroke-width="6" stroke-linecap="round" stroke-linejoin="round"/>
</svg>
