<svg width="102" height="106" viewBox="0 0 102 106" fill="none" xmlns="http://www.w3.org/2000/svg">
<path d="M67.9573 61.1198V56.1432C67.9573 51.3391 64.0796 47.4446 59.2963 47.4446H11.661C6.87765 47.4446 3 51.3391 3 56.1432V85.3272C3 90.1313 6.87765 94.0258 11.661 94.0258H42.1026" stroke="white" stroke-width="6" stroke-linecap="round" stroke-linejoin="round"/>
<path d="M50.4365 20.5214V37.6154" stroke="white" stroke-width="6" stroke-linecap="round" stroke-linejoin="round"/>
<path d="M20.5525 37.6154V20.3077C20.2929 16.0102 21.7238 11.7828 24.5347 8.54268C27.3456 5.30252 31.3098 3.31095 35.5673 3V3C37.5954 3.02246 39.5943 3.49092 41.4244 4.37276C43.2545 5.2546 44.8718 6.52855 46.1635 8.10574" stroke="white" stroke-width="6" stroke-linecap="round" stroke-linejoin="round"/>
<path d="M35.4796 77.3592C39.0199 77.3592 41.8899 74.4892 41.8899 70.949C41.8899 67.4087 39.0199 64.5387 35.4796 64.5387C31.9393 64.5387 29.0693 67.4087 29.0693 70.949C29.0693 74.4892 31.9393 77.3592 35.4796 77.3592Z" fill="white"/>
<path d="M51.1441 94.3665L60.4978 84.9424L54.2382 78.6357L58.8318 74.0316L65.0676 80.3143L74.5879 70.6025C73.5305 67.9906 73.4209 65.0867 74.2785 62.4014C74.9984 60.0527 76.3765 57.9635 78.2471 56.3852C80.1176 54.8069 82.4009 53.8067 84.8223 53.5049C86.6889 53.2954 88.5783 53.5117 90.3506 54.1378C92.1229 54.7639 93.7327 55.7837 95.0607 57.1217C96.3888 58.4597 97.401 60.0816 98.0224 61.8673C98.6438 63.6529 98.8585 65.5566 98.6506 67.4372C98.351 69.8768 97.3583 72.1773 95.7918 74.0619C94.2253 75.9465 92.1517 77.3349 89.8205 78.0602C87.146 78.9158 84.2593 78.8055 81.6568 77.7485L58.0939 101.489C57.6286 101.967 57.0731 102.347 56.4601 102.607C55.847 102.866 55.1888 103 54.5238 103C53.8589 103 53.2006 102.866 52.5876 102.607C51.9745 102.347 51.419 101.967 50.9537 101.489V101.489C50.5018 101.008 50.1482 100.443 49.9132 99.8255C49.6782 99.2076 49.5663 98.5492 49.584 97.8878C49.6017 97.2264 49.7486 96.5749 50.0163 95.9707C50.284 95.3666 50.6672 94.8214 51.1441 94.3665Z" stroke="white" stroke-width="6" stroke-linecap="round" stroke-linejoin="round"/>
<path d="M88.2572 67.9572C86.251 67.9572 84.6247 66.3309 84.6247 64.3247C84.6247 62.3186 86.251 60.6923 88.2572 60.6923C90.2633 60.6923 91.8896 62.3186 91.8896 64.3247C91.8896 66.3309 90.2633 67.9572 88.2572 67.9572Z" fill="white"/>
</svg>
