<svg width="103" height="103" viewBox="0 0 103 103" fill="none" xmlns="http://www.w3.org/2000/svg">
<path d="M75.9616 41.4121V34.5996L39.4808 3L3 34.5996V93.5582" stroke="white" stroke-width="6" stroke-linecap="round" stroke-linejoin="round"/>
<path d="M3 93.5581H44.631" stroke="white" stroke-width="6" stroke-linecap="round" stroke-linejoin="round"/>
<path d="M85.8369 56.6479C85.8369 63.7612 80.0703 69.5278 72.957 69.5278C65.8437 69.5278 60.0771 63.7612 60.0771 56.6479C60.0771 49.5345 65.8437 43.7681 72.957 43.7681C80.0704 43.7681 85.8369 49.5345 85.8369 56.6479Z" stroke="white" stroke-width="6"/>
<mask id="path-4-inside-1_541_6183" fill="white">
<path d="M42.915 103V96.6535C42.915 91.5071 44.9486 86.5714 48.5685 82.9324C52.1883 79.2933 57.0978 77.249 62.217 77.249L65.487 78.2534C69.9037 79.686 74.6419 79.7813 79.112 78.5274L83.6536 77.249C86.1922 77.243 88.7071 77.7403 91.0541 78.7128C93.4012 79.6853 95.5344 81.1137 97.3316 82.9162C99.1288 84.7187 100.555 86.8599 101.527 89.2171C102.5 91.5744 103.001 94.1014 103.001 96.6535V103"/>
</mask>
<path d="M45.4902 97.8541C43.8333 97.8541 42.4902 99.1973 42.4902 100.854C42.4902 102.511 43.8333 103.854 45.4902 103.854V97.8541ZM100.426 103.854C102.083 103.854 103.426 102.511 103.426 100.854C103.426 99.1973 102.083 97.8541 100.426 97.8541V103.854ZM45.4902 103.854H100.426V97.8541H45.4902V103.854ZM36.915 103C36.915 106.314 39.6013 109 42.915 109C46.2287 109 48.915 106.314 48.915 103H36.915ZM62.217 77.249L63.9789 71.5135L63.1178 71.249H62.217V77.249ZM65.487 78.2534L67.3382 72.5462L67.2937 72.5317L67.2489 72.5179L65.487 78.2534ZM79.112 78.5274L80.7325 84.3044L80.7377 84.3029L79.112 78.5274ZM83.6536 77.249L83.6394 71.249L82.8183 71.2509L82.0279 71.4734L83.6536 77.249ZM103.001 96.6535L97.001 96.6535V96.6535H103.001ZM97.001 103C97.001 106.314 99.6873 109 103.001 109C106.315 109 109.001 106.314 109.001 103H97.001ZM48.915 103V96.6535H36.915V103H48.915ZM48.915 96.6535C48.915 93.0882 50.3242 89.6752 52.8223 87.1637L44.3146 78.701C39.5731 83.4677 36.915 89.9261 36.915 96.6535H48.915ZM52.8223 87.1637C55.3194 84.6534 58.6994 83.249 62.217 83.249V71.249C55.4963 71.249 49.0572 73.9332 44.3146 78.701L52.8223 87.1637ZM60.4552 82.9845L63.7252 83.9889L67.2489 72.5179L63.9789 71.5135L60.4552 82.9845ZM63.6358 83.9607C69.1774 85.7582 75.1234 85.8778 80.7325 84.3044L77.4915 72.7503C74.1603 73.6848 70.63 73.6138 67.3382 72.5462L63.6358 83.9607ZM80.7377 84.3029L85.2794 83.0245L82.0279 71.4734L77.4862 72.7518L80.7377 84.3029ZM83.6678 83.2489C85.413 83.2448 87.1424 83.5867 88.7574 84.2559L93.3508 73.1698C90.2717 71.894 86.9715 71.2411 83.6394 71.249L83.6678 83.2489ZM88.7574 84.2559C90.3726 84.9251 91.8427 85.9089 93.0827 87.1526L101.58 78.6798C99.2261 76.3185 96.4298 74.4455 93.3508 73.1698L88.7574 84.2559ZM93.0827 87.1526C94.3227 88.3962 95.3082 89.8754 95.9812 91.5061L107.074 86.9282C105.801 83.8444 103.935 81.0411 101.58 78.6798L93.0827 87.1526ZM95.9812 91.5061C96.6542 93.1368 97.001 94.8861 97.001 96.6535L109.001 96.6536C109.001 93.3168 108.346 90.012 107.074 86.9282L95.9812 91.5061ZM97.001 96.6535V103H109.001V96.6535H97.001Z" fill="white" mask="url(#path-4-inside-1_541_6183)"/>
<path d="M24.0347 93.5583V60.2203C23.9488 56.5656 25.1225 52.9942 27.3551 50.1161C29.5878 47.2381 32.7409 45.2321 36.2759 44.4407C41.0188 43.5286 46.6651 45.0336 52.3565 52.3761" stroke="white" stroke-width="6" stroke-linecap="round" stroke-linejoin="round"/>
</svg>
